<svg width="180" height="60" viewBox="0 0 180 60" fill="none" xmlns="http://www.w3.org/2000/svg">
<g filter="url(#filter0_i_357:292)">
<path d="M3.99493 6.4469C4.57733 4.50371 6.30719 3.17083 8.33221 3.05055C20.2911 2.34026 61.8307 3.25427e-10 90 3.25427e-10C124.013 -3.14808e-05 160.71 2.28401 171.708 3.02408C173.713 3.15901 175.417 4.4869 175.995 6.41182C177.453 11.2727 180 20.7325 180 27.5039C180 34.4344 177.332 44.8453 175.894 49.9531C175.367 51.8221 173.796 53.1623 171.87 53.4091C160.189 54.9063 118.365 60 90 60C61.6349 60 19.8107 54.9063 8.13004 53.4091C6.20417 53.1623 4.63257 51.8221 4.10637 49.9531C2.66825 44.8452 0 34.4344 0 27.5039C0 20.7488 2.53496 11.3181 3.99493 6.4469Z" fill="black" fill-opacity="0.2"/>
</g>
<defs>
<filter id="filter0_i_357:292" x="0" y="0" width="180" height="60" filterUnits="userSpaceOnUse" color-interpolation-filters="sRGB">
<feFlood flood-opacity="0" result="BackgroundImageFix"/>
<feBlend mode="normal" in="SourceGraphic" in2="BackgroundImageFix" result="shape"/>
<feColorMatrix in="SourceAlpha" type="matrix" values="0 0 0 0 0 0 0 0 0 0 0 0 0 0 0 0 0 0 127 0" result="hardAlpha"/>
<feOffset/>
<feGaussianBlur stdDeviation="1"/>
<feComposite in2="hardAlpha" operator="arithmetic" k2="-1" k3="1"/>
<feColorMatrix type="matrix" values="0 0 0 0 0 0 0 0 0 0 0 0 0 0 0 0 0 0 0.4 0"/>
<feBlend mode="normal" in2="shape" result="effect1_innerShadow_357:292"/>
</filter>
</defs>
</svg>
